<svg width="72" height="72" viewBox="0 0 72 72" fill="none" xmlns="http://www.w3.org/2000/svg">
<path d="M6.32309 18.866L36 1.73205L65.6769 18.866V53.134L36 70.2679L6.32309 53.134V18.866Z" fill="white" stroke="#2563EB" stroke-width="3"/>
<path d="M21.517 44V26.5455H28.4034C29.7273 26.5455 30.8551 26.7983 31.7869 27.304C32.7188 27.804 33.429 28.5 33.9176 29.392C34.4119 30.2784 34.6591 31.3011 34.6591 32.4602C34.6591 33.6193 34.4091 34.642 33.9091 35.5284C33.4091 36.4148 32.6847 37.1051 31.7358 37.5994C30.7926 38.0937 29.6506 38.3409 28.3097 38.3409H23.9205V35.3835H27.7131C28.4233 35.3835 29.0085 35.2614 29.4688 35.017C29.9347 34.767 30.2813 34.4233 30.5085 33.9858C30.7415 33.5426 30.858 33.0341 30.858 32.4602C30.858 31.8807 30.7415 31.375 30.5085 30.9432C30.2813 30.5057 29.9347 30.1676 29.4688 29.929C29.0028 29.6847 28.4119 29.5625 27.696 29.5625H25.2074V44H21.517ZM43.4055 44.2386C42.1328 44.2386 40.9993 44.0199 40.005 43.5824C39.0163 43.1392 38.2351 42.5312 37.6612 41.7585C37.093 40.9801 36.8004 40.0824 36.7834 39.0653H40.4993C40.522 39.4915 40.6612 39.8665 40.9169 40.1903C41.1783 40.5085 41.5249 40.7557 41.9567 40.9318C42.3885 41.108 42.8743 41.196 43.4141 41.196C43.9766 41.196 44.4737 41.0966 44.9055 40.8977C45.3374 40.6989 45.6754 40.4233 45.9197 40.071C46.1641 39.7187 46.2862 39.3125 46.2862 38.8523C46.2862 38.3864 46.1555 37.9744 45.8942 37.6165C45.6385 37.2528 45.2692 36.9687 44.7862 36.7642C44.3089 36.5597 43.7408 36.4574 43.0817 36.4574H41.4538V33.7472H43.0817C43.6385 33.7472 44.13 33.6506 44.5561 33.4574C44.9879 33.2642 45.3232 32.9972 45.5618 32.6562C45.8004 32.3097 45.9197 31.9062 45.9197 31.446C45.9197 31.0085 45.8146 30.625 45.6044 30.2955C45.3999 29.9602 45.1101 29.6989 44.7351 29.5114C44.3658 29.3239 43.9339 29.2301 43.4396 29.2301C42.9396 29.2301 42.4822 29.321 42.0675 29.5028C41.6527 29.679 41.3203 29.9318 41.0703 30.2614C40.8203 30.5909 40.6868 30.9773 40.6697 31.4205H37.1328C37.1499 30.4148 37.4368 29.5284 37.9936 28.7614C38.5504 27.9943 39.3004 27.3949 40.2436 26.9631C41.1925 26.5256 42.2635 26.3068 43.4567 26.3068C44.6612 26.3068 45.7152 26.5256 46.6186 26.9631C47.522 27.4006 48.2237 27.9915 48.7237 28.7358C49.2294 29.4744 49.4794 30.304 49.4737 31.2244C49.4794 32.2017 49.1754 33.017 48.5618 33.6705C47.9538 34.3239 47.1612 34.7386 46.1839 34.9148V35.0511C47.468 35.2159 48.4453 35.6619 49.1158 36.3892C49.7919 37.1108 50.1271 38.0142 50.1214 39.0994C50.1271 40.0938 49.8402 40.9773 49.2607 41.75C48.6868 42.5227 47.8942 43.1307 46.8828 43.5739C45.8714 44.017 44.7124 44.2386 43.4055 44.2386Z" fill="#2563EB"/>
</svg>
